<?xml version="1.0" encoding="utf-8"?>
<svg width="1024px" height="1024px" viewBox="0 0 1024 1024" version="1.1" xmlns="http://www.w3.org/2000/svg">
  <title>codium_grey_letterpress</title>
  <desc>Created with Sketch.</desc>
  <path stroke-opacity="0" stroke-width="0" stroke="#000000" id="svg_1" d="M 339.755 386.238 L 343.481 385.617 C 321.831 395.871 292.717 417.111 273.24 432.134 C 241.746 456.274 217.192 492.118 196.575 528.38 C 283.707 481.035 364.202 474.093 381.505 478.444 C 381.711 478.549 373.527 525.582 343.481 565.056 C 311.884 606.392 258.322 640.063 258.322 640.063 C 277.904 642.34 297.585 642.756 317.067 640.891 C 350.424 637.784 384.717 628.046 411.86 604.943 C 423.88 594.686 445.84 564.538 443.458 568.887 C 430.508 601.213 428.645 637.991 430.718 673.114 C 431.857 693.73 434.032 714.14 440.142 733.616 C 445.324 750.297 452.887 765.939 461.486 780.547 L 469.982 787.283 C 470.085 786.555 461.796 671.455 520.228 614.577 C 626.525 511.18 744.008 609.499 744.008 609.499 C 744.008 609.499 739.347 531.592 651.181 493.776 C 862.322 474.299 816.633 599.451 816.633 599.451 C 816.633 599.451 888.946 568.578 877.864 480.412 C 867.811 400.64 789.799 381.679 773.537 378.572 C 759.859 356.089 656.256 185.041 483.656 252.28 C 296.552 325.114 144.981 307.812 144.981 307.812 C 167.255 333.401 193.364 354.017 221.75 368.624 C 258.632 387.687 299.762 393.285 339.755 386.238 Z M 665.065 369.766 C 671.593 371.94 678.221 374.117 684.852 376.19 C 684.334 382.507 679.879 387.482 674.49 387.482 C 668.792 387.482 664.027 381.888 664.027 374.946 C 664.131 373.08 664.443 371.32 665.065 369.766 Z M 623.52 372.253 C 623.52 366.97 624.453 361.996 626.213 357.332 C 630.151 358.267 634.088 359.2 637.817 360.442 C 641.754 361.686 645.588 363.03 649.525 364.379 C 648.385 367.589 647.657 371.111 647.657 374.841 C 647.657 390.797 659.677 403.747 674.49 403.747 C 687.545 403.747 698.321 393.699 700.808 380.435 C 703.606 381.058 706.297 381.783 709.094 382.302 C 704.536 401.47 687.441 415.764 666.929 415.764 C 642.892 415.764 623.52 396.287 623.52 372.253 Z" style="fill: rgb(217, 217, 217);"/>
</svg>